<svg width="400" height="400" viewBox="0 0 400 400" fill="none" xmlns="http://www.w3.org/2000/svg">
<rect width="400" height="400" rx="200" fill="#D2F9D6"/>
<path fill-rule="evenodd" clip-rule="evenodd" d="M137.378 192.418C137.091 190.324 134.821 188.923 132.707 188.923C131.215 188.923 129.743 189.833 129.513 191.308L122.291 237.709C121.773 241.035 125.434 243.606 128.619 242.517C129.31 242.281 130.007 242.062 130.712 241.862L150.094 236.352C151.814 235.863 153 234.293 153 232.505V221.235C153 219.988 152.41 218.822 151.457 218.017C143.972 211.702 138.788 202.674 137.378 192.418ZM264.091 192.546C264.406 190.38 266.739 188.923 268.927 188.923C270.471 188.923 271.989 189.865 272.234 191.39L279.685 237.805C280.216 241.113 276.607 243.692 273.435 242.615C272.628 242.341 271.811 242.09 270.984 241.862L250.937 236.336C249.202 235.858 248 234.279 248 232.48V221.272C248 220.004 248.61 218.821 249.591 218.018C257.278 211.729 262.611 202.75 264.091 192.546Z" fill="#350B09"/>
<path fill-rule="evenodd" clip-rule="evenodd" d="M331.963 328.235C321.351 312.884 305.706 301.726 287.736 296.692L245.999 285V255.001C263.643 241.747 275.23 220.89 275.942 197.297C278.408 198.384 281.13 199 284 199C295.045 199 304 190.046 304 179C304 167.954 295.045 159 284 159C281.153 159 278.451 159.603 276 160.675V155C276 113.578 242.421 80 201 80H200.999C159.578 80 126 113.578 126 155V160.675C123.548 159.603 120.846 159 118 159C106.954 159 98 167.954 98 179C98 190.046 106.954 199 118 199C120.869 199 123.591 198.385 126.058 197.297C126.769 220.89 138.356 241.747 155.999 255.001V285L114.263 296.692C96.293 301.726 80.648 312.884 70.036 328.235L41 370.24V400H361V370.24L331.963 328.235Z" fill="#FFCF83"/>
<path fill-rule="evenodd" clip-rule="evenodd" d="M200.999 270C191.751 270 182.899 268.316 174.719 265.255C186.353 272.687 200.169 277 214.999 277C226.059 277 236.548 274.587 245.999 270.29V255.001C233.464 264.417 217.884 270 200.999 270Z" fill="#F7A74F"/>
<path d="M128.609 181.919C128.864 180.99 129.001 180.011 129.001 179.001C129.001 172.926 124.076 168.001 118.001 168.001C116.482 168.001 115.035 168.309 113.719 168.865" stroke="#00004D" stroke-width="2" stroke-linecap="round" stroke-linejoin="round"/>
<path d="M273.391 181.919C273.136 180.99 273 180.011 273 179.001C273 172.926 277.925 168.001 284 168.001C285.518 168.001 286.965 168.309 288.282 168.865" stroke="#00004D" stroke-width="2" stroke-linecap="round" stroke-linejoin="round"/>
<path fill-rule="evenodd" clip-rule="evenodd" d="M361 370.24L331.964 328.235C321.352 312.885 305.707 301.726 287.736 296.692L246 285C246 309.852 225.853 330 201 330C176.147 330 156 309.852 156 285L114.264 296.692C96.293 301.726 80.648 312.885 70.036 328.235L41 370.24V400H361V370.24Z" fill="#219653"/>
<path d="M254.776 310.64C244.963 330.411 224.568 343.999 201 343.999C169.594 343.999 143.824 319.87 141.216 289.14" stroke="#0F7118" stroke-width="2" stroke-linecap="round" stroke-linejoin="round"/>
<path d="M213.56 223.5C210.902 227.703 206.213 230.493 200.873 230.493C195.7 230.493 191.138 227.874 188.441 223.889" stroke="#00004D" stroke-width="2" stroke-linecap="round" stroke-linejoin="round"/>
<path fill-rule="evenodd" clip-rule="evenodd" d="M242 162C242 166.418 238.418 170 234 170C229.582 170 226 166.418 226 162C226 157.582 229.582 154 234 154C238.418 154 242 157.582 242 162" fill="#1C0504"/>
<path fill-rule="evenodd" clip-rule="evenodd" d="M176 162C176 166.418 172.418 170 168 170C163.582 170 160 166.418 160 162C160 157.582 163.582 154 168 154C172.418 154 176 157.582 176 162" fill="#1C0504"/>
<path fill-rule="evenodd" clip-rule="evenodd" d="M219.059 236.03L211.373 240.567C205.268 244.171 197.732 244.171 191.626 240.567L183.94 236.03C179.863 233.623 178.039 228.612 179.592 224.086L180.913 220.24C181.464 218.634 182.953 217.557 184.626 217.557H218.373C220.046 217.557 221.535 218.634 222.086 220.24L223.407 224.086C224.96 228.612 223.136 233.623 219.059 236.03M268.584 186L263.495 202.887C260.719 212.1 253.761 219.396 244.791 222.5L235.33 225.773L231.546 218.186C228.195 211.467 221.415 207.233 214.006 207.233H201.5H188.993C181.585 207.233 174.804 211.467 171.453 218.186L167.669 225.773L158.208 222.5C149.238 219.396 142.28 212.1 139.504 202.887L134.415 186C132.564 188.068 130.305 189.747 127.75 190.883V204.528C127.75 228.259 141.502 249.759 162.833 259.379L185.555 269.624C195.708 274.202 207.291 274.202 217.443 269.624L240.165 259.378C261.496 249.759 275.25 228.259 275.25 204.528V190.883C272.695 189.747 270.435 188.068 268.584 186" fill="#4D2F00" fill-opacity="0.14"/>
<path fill-rule="evenodd" clip-rule="evenodd" d="M131.965 165.054C150.844 156.473 166.598 142.222 177.005 124.441C201.285 147.653 233.35 162.782 268.886 165.536C272.258 161.843 276.984 159.41 282.286 159.051L279.662 142.44C277.988 131.838 274.23 121.932 268.824 113.145C261.882 101.861 252.212 92.445 240.739 85.784C228.948 78.939 215.26 75 200.645 75C197.249 75 193.907 75.222 190.624 75.634C179.775 76.996 169.602 80.53 160.55 85.784C157.325 87.657 154.249 89.753 151.329 92.041C143.862 97.893 137.456 105.033 132.465 113.145C127.06 121.932 123.301 131.838 121.627 142.439V142.44L119 159.071C124.072 159.412 128.627 161.628 131.965 165.054" fill="#420E0B"/>
</svg>
