<svg width="406" height="439" viewBox="0 0 406 439" fill="none" xmlns="http://www.w3.org/2000/svg">
<g clip-path="url(#clip0_9_569)">
<path d="M368.1 234.4C368 157.9 379.5 137.7 338.1 73C296.7 8.40001 195.1 -5.9 118.3 42C41.4 89.9 20.7 151.6 20.7 151.6C20.7 151.6 -7.19999 223.6 32 296.1C67.8 362.4 138.4 400.1 199.6 431.1H356.1C365.4 423.3 373.4 413.9 380 402.8C411.9 349.1 368.2 310.9 368.1 234.4Z" fill="#219653"/>
<path opacity="0.7" d="M368.1 234.4C368 157.9 379.5 137.7 338.1 73C296.7 8.40001 195.1 -5.9 118.3 42C41.4 89.9 20.7 151.6 20.7 151.6C20.7 151.6 -7.19999 223.6 32 296.1C67.8 362.4 138.4 400.1 199.6 431.1H356.1C365.4 423.3 373.4 413.9 380 402.8C411.9 349.1 368.2 310.9 368.1 234.4Z" fill="white"/>
<path d="M182.6 25.2C184 30.6 183.3 20.7 185.9 8.60003C188.5 -3.49997 193.1 1.40003 193.1 1.40003" stroke="#263238" stroke-miterlimit="10" stroke-linecap="round" stroke-linejoin="round"/>
<path d="M181.7 12.9L190.1 9.5" stroke="#263238" stroke-miterlimit="10" stroke-linecap="round" stroke-linejoin="round"/>
<path d="M196.9 5.40002C196.9 5.40002 191.9 15.7 199.4 20" stroke="#263238" stroke-miterlimit="10" stroke-linecap="round" stroke-linejoin="round"/>
<path d="M204 2.5C204 2.5 212.2 7.1 207.1 16.9" stroke="#263238" stroke-miterlimit="10" stroke-linecap="round" stroke-linejoin="round"/>
<path d="M198.3 8.90002L204.2 13.2" stroke="#263238" stroke-miterlimit="10" stroke-linecap="round" stroke-linejoin="round"/>
<path d="M203 7L198.4 14.3" stroke="#263238" stroke-miterlimit="10" stroke-linecap="round" stroke-linejoin="round"/>
<path d="M24.1 266.9C24.1 266.9 10.2 266.7 10.2 278.7" stroke="#263238" stroke-miterlimit="10" stroke-linecap="round" stroke-linejoin="round"/>
<path d="M22.8999 274.5C22.5999 272.7 16.4999 270.5 15.4999 275.1C14.4999 279.7 21.9999 276.9 24.2999 274.8C24.2999 274.8 19.9999 279 21.2999 280.2" stroke="#263238" stroke-miterlimit="10" stroke-linecap="round" stroke-linejoin="round"/>
<path d="M23.8 281.5C23.8 281.5 22 283.8 20 282.7" stroke="#263238" stroke-miterlimit="10" stroke-linecap="round" stroke-linejoin="round"/>
<path d="M36 273.4L25.6 284.1C25.6 284.1 30.8 278.8 33.9 280.5C37.7 282.6 32.8 288.3 28.7 284.2" stroke="#263238" stroke-miterlimit="10" stroke-linecap="round" stroke-linejoin="round"/>
<path d="M41.2999 276.3C41.2999 276.3 44.0999 289 29.7999 289.5" stroke="#263238" stroke-miterlimit="10" stroke-linecap="round" stroke-linejoin="round"/>
<path d="M227.8 60.6L232.9 61.4001V72.9001L244 52.8L261.4 55.6" stroke="#263238" stroke-miterlimit="10" stroke-linecap="round" stroke-linejoin="round"/>
<path d="M245.9 61.6001L253.5 75.1001" stroke="#263238" stroke-miterlimit="10" stroke-linecap="round" stroke-linejoin="round"/>
<path d="M255.5 63.2001L241.8 73.2001" stroke="#263238" stroke-miterlimit="10" stroke-linecap="round" stroke-linejoin="round"/>
<path d="M158.9 81C157.6 79.4 150.2 80.5 151.7 85.8C153.2 91.1 159.4 84 160.5 80.5C160.5 80.5 158.5 87.2 160.5 87.7" stroke="#263238" stroke-miterlimit="10" stroke-linecap="round" stroke-linejoin="round"/>
<path d="M164.6 75.6L162.9 81.5C162.9 81.5 163.7 78.5 165.2 78.5C167 78.5 166.3 81.5 164.1 80.9" stroke="#263238" stroke-miterlimit="10" stroke-linecap="round" stroke-linejoin="round"/>
<path d="M304.7 148.3L301.2 161L308.9 169.3" stroke="#263238" stroke-miterlimit="10" stroke-linecap="round" stroke-linejoin="round"/>
<path d="M309.1 153.4L317.9 160.8" stroke="#263238" stroke-miterlimit="10" stroke-linecap="round" stroke-linejoin="round"/>
<path d="M315.1 151.6L311.3 160.9" stroke="#263238" stroke-miterlimit="10" stroke-linecap="round" stroke-linejoin="round"/>
<path d="M321.3 159.8C321.3 159.8 321.4 162.4 320.2 162.8" stroke="#263238" stroke-miterlimit="10" stroke-linecap="round" stroke-linejoin="round"/>
<path d="M322.4 150.5L327.7 154.5" stroke="#263238" stroke-miterlimit="10" stroke-linecap="round" stroke-linejoin="round"/>
<path d="M329.6 147.3L324.4 166.1" stroke="#263238" stroke-miterlimit="10" stroke-linecap="round" stroke-linejoin="round"/>
<path d="M329.9 140.8L338.4 150.4L334.8 160.9" stroke="#263238" stroke-miterlimit="10" stroke-linecap="round" stroke-linejoin="round"/>
<path d="M96.3999 388.5L108.6 352L123.5 368.6L96.3999 388.5Z" stroke="#263238" stroke-miterlimit="10" stroke-linecap="round" stroke-linejoin="round"/>
<path d="M119.9 371.3L116.7 367.7L120.1 364.8" stroke="#263238" stroke-miterlimit="10" stroke-linecap="round" stroke-linejoin="round"/>
<path d="M23.8955 183.333C30.2737 180.691 33.3025 173.378 30.6605 167C28.0186 160.622 20.7062 157.593 14.328 160.235C7.94985 162.877 4.92105 170.189 7.56305 176.568C10.205 182.946 17.5173 185.975 23.8955 183.333Z" stroke="#263238" stroke-miterlimit="10" stroke-linecap="round" stroke-linejoin="round"/>
<path d="M32.9 174.7C40.5768 174.7 46.8 168.477 46.8 160.8C46.8 153.123 40.5768 146.9 32.9 146.9C25.2232 146.9 19 153.123 19 160.8C19 168.477 25.2232 174.7 32.9 174.7Z" stroke="#263238" stroke-miterlimit="10" stroke-linecap="round" stroke-linejoin="round"/>
<path d="M21.4999 159.5L19.7999 165.4" stroke="#263238" stroke-miterlimit="10" stroke-linecap="round" stroke-linejoin="round"/>
<path d="M23.9 160.3L21.5 168.7" stroke="#263238" stroke-miterlimit="10" stroke-linecap="round" stroke-linejoin="round"/>
<path d="M26.3999 161.7L23.8999 171.2" stroke="#263238" stroke-miterlimit="10" stroke-linecap="round" stroke-linejoin="round"/>
<path d="M29.1999 164.5L27.3999 173.6" stroke="#263238" stroke-miterlimit="10" stroke-linecap="round" stroke-linejoin="round"/>
<path d="M30.7999 167.4L29.2 174.2" stroke="#263238" stroke-miterlimit="10" stroke-linecap="round" stroke-linejoin="round"/>
<path d="M7.09989 155.8C5.99989 155.5 2.99989 158.3 5.29989 160.2C7.59989 162.1 8.19989 157 7.59989 155.1C7.59989 155.1 8.79989 158.8 9.79989 158.3" stroke="#263238" stroke-miterlimit="10" stroke-linecap="round" stroke-linejoin="round"/>
<path d="M23.2 139.7L27.2 147C27.2 147 25.2 143.4 26.6 142C28.3 140.3 30.6 143.9 27.7 145.4" stroke="#263238" stroke-miterlimit="10" stroke-linecap="round" stroke-linejoin="round"/>
<path d="M96.2999 138.9L102 144.2" stroke="#263238" stroke-miterlimit="10" stroke-linecap="round" stroke-linejoin="round"/>
<path d="M102 137.5L97.2 144.5" stroke="#263238" stroke-miterlimit="10" stroke-linecap="round" stroke-linejoin="round"/>
<path d="M107.5 139.5L113.2 137.4" stroke="#263238" stroke-miterlimit="10" stroke-linecap="round" stroke-linejoin="round"/>
<path d="M115.9 131.5L119.3 134.5" stroke="#263238" stroke-miterlimit="10" stroke-linecap="round" stroke-linejoin="round"/>
<path d="M122 127.8L117.6 142.8" stroke="#263238" stroke-miterlimit="10" stroke-linecap="round" stroke-linejoin="round"/>
<path d="M368.9 124.8L368.7 113.4H377.3C377.3 113.4 372.5 116 374.7 122.2C376.9 128.3 380.4 124.8 380.4 124.8" stroke="#263238" stroke-miterlimit="10" stroke-linecap="round" stroke-linejoin="round"/>
<path d="M354.3 319.6L364.1 312.9L377.1 313.8L377.9 330.3L368.4 337.1L356.6 336.3L354.3 319.6Z" stroke="#263238" stroke-miterlimit="10" stroke-linecap="round" stroke-linejoin="round"/>
<path d="M356.6 336.3L366.1 329.4L377.9 330.3" stroke="#263238" stroke-miterlimit="10" stroke-linecap="round" stroke-linejoin="round"/>
<path d="M366.1 329.4L364.1 312.9" stroke="#263238" stroke-miterlimit="10" stroke-linecap="round" stroke-linejoin="round"/>
<path d="M354.3 319.6L367.3 321.2L377.1 313.8" stroke="#263238" stroke-miterlimit="10" stroke-linecap="round" stroke-linejoin="round"/>
<path d="M367.3 321.2L368.4 337.1" stroke="#263238" stroke-miterlimit="10" stroke-linecap="round" stroke-linejoin="round"/>
<path d="M356.1 195.9L355.7 217.8L374.9 209.1L356.1 195.9Z" stroke="#263238" stroke-miterlimit="10" stroke-linecap="round" stroke-linejoin="round"/>
<path d="M356.1 195.9L365.3 213.4" stroke="#263238" stroke-miterlimit="10" stroke-linecap="round" stroke-linejoin="round"/>
<path d="M363.8 210.6L366 209.5L367.5 212.5" stroke="#263238" stroke-miterlimit="10" stroke-linecap="round" stroke-linejoin="round"/>
<path d="M188.3 193.8L196.2 202.3" stroke="#263238" stroke-miterlimit="10" stroke-linecap="round" stroke-linejoin="round"/>
<path d="M196.3 192.6L189.6 201.8" stroke="#263238" stroke-miterlimit="10" stroke-linecap="round" stroke-linejoin="round"/>
<path d="M199.5 188.2C199.5 188.2 201.4 187.5 201.7 189.4C202.1 191.3 198.9 193.8 198.9 193.8H203.4" stroke="#263238" stroke-miterlimit="10" stroke-linecap="round" stroke-linejoin="round"/>
<path d="M64.2999 66.0001C65.0999 55.8001 71.0999 47.2001 79.4999 42.7001" stroke="#263238" stroke-miterlimit="10" stroke-linecap="round" stroke-linejoin="round"/>
<path d="M86.4 96.5C79 94.7 72.7 90.1 68.7 83.9" stroke="#263238" stroke-miterlimit="10" stroke-linecap="round" stroke-linejoin="round"/>
<path d="M122.1 70.6C120.8 86.6 106.9 98.4 90.8999 97.2" stroke="#263238" stroke-miterlimit="10" stroke-linecap="round" stroke-linejoin="round"/>
<path d="M95.4999 39.4C109.3 40.5 120.1 51.1 121.9 64.3" stroke="#263238" stroke-miterlimit="10" stroke-linecap="round" stroke-linejoin="round"/>
<path d="M105.7 90.6C101.4 93 96.4 94.2 91.2 93.8C77.1 92.7 66.6 80.4 67.8 66.3" stroke="#263238" stroke-miterlimit="10" stroke-linecap="round" stroke-linejoin="round"/>
<path d="M69.2999 59.1001C73.2999 48.8001 83.5999 41.9001 95.1999 42.8001C109.3 43.9001 119.8 56.2001 118.6 70.3001C118.1 76.1001 115.8 81.3001 112.2 85.3001" stroke="#263238" stroke-miterlimit="10" stroke-linecap="round" stroke-linejoin="round"/>
<path d="M90.7 49.9L93.2 68.3L107.3 63.9" stroke="#263238" stroke-miterlimit="10" stroke-linecap="round" stroke-linejoin="round"/>
<path d="M313.7 104.1C305.4 104.2 297.5 99.0001 294.6 90.7001C291.8 82.9001 294.2 74.5001 300 69.2001" stroke="#263238" stroke-miterlimit="10" stroke-linecap="round" stroke-linejoin="round"/>
<path d="M332.5 90.5C330.6 96.1 326.2 100.8 320.2 102.9" stroke="#263238" stroke-miterlimit="10" stroke-linecap="round" stroke-linejoin="round"/>
<path d="M306.8 65.1C317.2 61.4 328.7 66.9 332.4 77.4" stroke="#263238" stroke-miterlimit="10" stroke-linecap="round" stroke-linejoin="round"/>
<path d="M323.4 69.3C326.4 71.4 328.9 74.4 330.2 78.1C333.4 87.3 328.6 97.4 319.4 100.7C312.5 103.1 305.1 101 300.4 95.9" stroke="#263238" stroke-miterlimit="10" stroke-linecap="round" stroke-linejoin="round"/>
<path d="M296.8 89.9001C293.6 80.7001 298.4 70.6001 307.6 67.3001C311.1 66.1001 314.6 66.0001 317.9 66.9001" stroke="#263238" stroke-miterlimit="10" stroke-linecap="round" stroke-linejoin="round"/>
<path d="M306.7 73.1001L313.5 84.0001L307.3 92.0001" stroke="#263238" stroke-miterlimit="10" stroke-linecap="round" stroke-linejoin="round"/>
<path d="M171.8 382.9C171.8 377.4 174.6 372.5 178.9 369.6" stroke="#263238" stroke-miterlimit="10" stroke-linecap="round" stroke-linejoin="round"/>
<path d="M199.5 394C196.6 397.1 192.4 399 187.8 399C180.7 399 174.7 394.4 172.6 388.1" stroke="#263238" stroke-miterlimit="10" stroke-linecap="round" stroke-linejoin="round"/>
<path d="M187.8 366.8C196.7 366.8 203.9 374 203.9 382.9" stroke="#263238" stroke-miterlimit="10" stroke-linecap="round" stroke-linejoin="round"/>
<path d="M187.8 397.1C180 397.1 173.6 390.7 173.6 382.9" stroke="#263238" stroke-miterlimit="10" stroke-linecap="round" stroke-linejoin="round"/>
<path d="M176.8 374C179.4 370.8 183.4 368.7 187.9 368.7C195.7 368.7 202.1 375.1 202.1 382.9C202.1 388.2 199.2 392.9 194.8 395.3" stroke="#263238" stroke-miterlimit="10" stroke-linecap="round" stroke-linejoin="round"/>
<path d="M185.6 392.6L187.8 382.9L184.8 375" stroke="#263238" stroke-miterlimit="10" stroke-linecap="round" stroke-linejoin="round"/>
<path d="M0.5 431.4H405.1" stroke="#263238" stroke-miterlimit="10" stroke-linecap="round" stroke-linejoin="round"/>
<path d="M205.8 220.6L199.2 346L115.7 341.6L116.4 328.3L122.3 216.2L174.9 218.9L205.8 220.6Z" fill="white"/>
<path opacity="0.2" d="M179.7 294.1L160.9 295.6L166.4 319.3L116.4 328.3L122.3 216.2L174.9 218.9L179.7 294.1Z" fill="black" fill-opacity="0.7"/>
<path d="M205.8 220.6L199.2 346L115.7 341.6L116.4 328.3L122.3 216.2L174.9 218.9L205.8 220.6Z" stroke="#263238" stroke-miterlimit="10" stroke-linecap="round" stroke-linejoin="round"/>
<path d="M128.2 224.8L149.9 225.9" stroke="#263238" stroke-width="2" stroke-miterlimit="10" stroke-linecap="round" stroke-linejoin="round"/>
<path d="M128 228.9L142.7 229.7" stroke="#263238" stroke-width="2" stroke-miterlimit="10" stroke-linecap="round" stroke-linejoin="round"/>
<path d="M132.7 239L195.2 242.3" stroke="#263238" stroke-width="2" stroke-miterlimit="10" stroke-linecap="round" stroke-linejoin="round"/>
<path d="M132.5 243.2L195 246.5" stroke="#263238" stroke-width="2" stroke-miterlimit="10" stroke-linecap="round" stroke-linejoin="round"/>
<path d="M132.3 248.1L185.6 250.9" stroke="#263238" stroke-width="2" stroke-miterlimit="10" stroke-linecap="round" stroke-linejoin="round"/>
<path d="M137.425 252.834L132.332 252.566L132.064 257.659L137.157 257.927L137.425 252.834Z" stroke="#263238" stroke-miterlimit="10" stroke-linecap="round" stroke-linejoin="round"/>
<path d="M146.629 253.233L141.536 252.966L141.269 258.058L146.361 258.326L146.629 253.233Z" stroke="#263238" stroke-miterlimit="10" stroke-linecap="round" stroke-linejoin="round"/>
<path d="M155.828 253.732L150.735 253.465L150.467 258.558L155.56 258.825L155.828 253.732Z" stroke="#263238" stroke-miterlimit="10" stroke-linecap="round" stroke-linejoin="round"/>
<path d="M165.027 254.231L159.934 253.964L159.666 259.057L164.759 259.324L165.027 254.231Z" stroke="#263238" stroke-miterlimit="10" stroke-linecap="round" stroke-linejoin="round"/>
<path d="M129.4 238.9C129.4 239.6 128.8 240.1 128.1 240.1C127.4 240.1 126.9 239.5 126.9 238.8C126.9 238.1 127.5 237.6 128.2 237.6C128.9 237.6 129.4 238.2 129.4 238.9Z" fill="#263238"/>
<path d="M131.5 263.4L194 266.7" stroke="#263238" stroke-width="2" stroke-miterlimit="10" stroke-linecap="round" stroke-linejoin="round"/>
<path d="M131.2 267.6L193.7 270.8" stroke="#263238" stroke-width="2" stroke-miterlimit="10" stroke-linecap="round" stroke-linejoin="round"/>
<path d="M131 272.4L184.3 275.2" stroke="#263238" stroke-width="2" stroke-miterlimit="10" stroke-linecap="round" stroke-linejoin="round"/>
<path d="M136.126 277.132L131.033 276.864L130.766 281.957L135.859 282.225L136.126 277.132Z" stroke="#263238" stroke-miterlimit="10" stroke-linecap="round" stroke-linejoin="round"/>
<path d="M145.325 277.631L140.233 277.364L139.965 282.456L145.058 282.724L145.325 277.631Z" stroke="#263238" stroke-miterlimit="10" stroke-linecap="round" stroke-linejoin="round"/>
<path d="M154.524 278.13L149.431 277.863L149.164 282.956L154.257 283.223L154.524 278.13Z" stroke="#263238" stroke-miterlimit="10" stroke-linecap="round" stroke-linejoin="round"/>
<path d="M163.728 278.53L158.636 278.262L158.368 283.355L163.461 283.623L163.728 278.53Z" stroke="#263238" stroke-miterlimit="10" stroke-linecap="round" stroke-linejoin="round"/>
<path d="M128.1 263.2C128.1 263.9 127.5 264.4 126.8 264.4C126.1 264.4 125.6 263.8 125.6 263.1C125.6 262.4 126.2 261.9 126.9 261.9C127.6 261.9 128.2 262.5 128.1 263.2Z" fill="#263238"/>
<path d="M130.2 287.7L192.7 291" stroke="#263238" stroke-width="2" stroke-miterlimit="10" stroke-linecap="round" stroke-linejoin="round"/>
<path d="M130 291.9L192.5 295.2" stroke="#263238" stroke-width="2" stroke-miterlimit="10" stroke-linecap="round" stroke-linejoin="round"/>
<path d="M129.7 296.7L183 299.5" stroke="#263238" stroke-width="2" stroke-miterlimit="10" stroke-linecap="round" stroke-linejoin="round"/>
<path d="M134.828 301.43L129.735 301.163L129.468 306.256L134.56 306.523L134.828 301.43Z" stroke="#263238" stroke-miterlimit="10" stroke-linecap="round" stroke-linejoin="round"/>
<path d="M144.027 301.93L138.934 301.662L138.667 306.755L143.759 307.023L144.027 301.93Z" stroke="#263238" stroke-miterlimit="10" stroke-linecap="round" stroke-linejoin="round"/>
<path d="M153.226 302.429L148.133 302.161L147.865 307.254L152.958 307.521L153.226 302.429Z" stroke="#263238" stroke-miterlimit="10" stroke-linecap="round" stroke-linejoin="round"/>
<path d="M162.425 302.928L157.332 302.661L157.064 307.754L162.157 308.021L162.425 302.928Z" stroke="#263238" stroke-miterlimit="10" stroke-linecap="round" stroke-linejoin="round"/>
<path d="M126.9 287.5C126.9 288.2 126.3 288.7 125.6 288.7C124.9 288.7 124.4 288.1 124.4 287.4C124.4 286.7 125 286.2 125.7 286.2C126.4 286.2 126.9 286.8 126.9 287.5Z" fill="#263238"/>
<path d="M128.9 312.7L191.4 316" stroke="#263238" stroke-width="2" stroke-miterlimit="10" stroke-linecap="round" stroke-linejoin="round"/>
<path d="M128.6 316.9L191.1 320.2" stroke="#263238" stroke-width="2" stroke-miterlimit="10" stroke-linecap="round" stroke-linejoin="round"/>
<path d="M128.4 321.8L181.7 324.6" stroke="#263238" stroke-width="2" stroke-miterlimit="10" stroke-linecap="round" stroke-linejoin="round"/>
<path d="M133.529 326.43L128.436 326.163L128.169 331.256L133.262 331.523L133.529 326.43Z" stroke="#263238" stroke-miterlimit="10" stroke-linecap="round" stroke-linejoin="round"/>
<path d="M142.728 326.93L137.636 326.662L137.368 331.755L142.461 332.023L142.728 326.93Z" stroke="#263238" stroke-miterlimit="10" stroke-linecap="round" stroke-linejoin="round"/>
<path d="M151.927 327.429L146.835 327.162L146.567 332.254L151.66 332.522L151.927 327.429Z" stroke="#263238" stroke-miterlimit="10" stroke-linecap="round" stroke-linejoin="round"/>
<path d="M161.126 327.928L156.034 327.661L155.766 332.754L160.859 333.021L161.126 327.928Z" stroke="#263238" stroke-miterlimit="10" stroke-linecap="round" stroke-linejoin="round"/>
<path d="M125.5 312.6C125.5 313.3 124.9 313.8 124.2 313.8C123.5 313.8 123 313.2 123 312.5C123 311.8 123.6 311.3 124.3 311.3C125 311.3 125.6 311.9 125.5 312.6Z" fill="#263238"/>
<path d="M134 254.7L134.7 255.8L137.4 252.8" stroke="#263238" stroke-width="2" stroke-miterlimit="10" stroke-linecap="round" stroke-linejoin="round"/>
<path d="M151.2 279.6L151.8 280.8L154.5 277.8" stroke="#263238" stroke-width="2" stroke-miterlimit="10" stroke-linecap="round" stroke-linejoin="round"/>
<path d="M159.8 305.3L160.4 306.5L163.2 303.5" stroke="#263238" stroke-width="2" stroke-miterlimit="10" stroke-linecap="round" stroke-linejoin="round"/>
<path d="M139.4 328.2L140 329.4L142.8 326.4" stroke="#263238" stroke-width="2" stroke-miterlimit="10" stroke-linecap="round" stroke-linejoin="round"/>
<path d="M150.3 310.5L69.7 332.9L36.1 211.8L69.5 202.6L116.7 189.5L147.2 299.3L150.3 310.5Z" fill="white"/>
<path opacity="0.2" d="M147.2 299.3L84.9 303.3L69.5 202.6L116.7 189.5L147.2 299.3Z" fill="black" fill-opacity="0.7"/>
<path d="M150.3 310.5L69.7 332.9L36.1 211.8L69.5 202.6L116.7 189.5L147.2 299.3L150.3 310.5Z" stroke="#263238" stroke-miterlimit="10" stroke-linecap="round" stroke-linejoin="round"/>
<path d="M44.4 218.1L65.4 212.3" stroke="#263238" stroke-width="2" stroke-miterlimit="10" stroke-linecap="round" stroke-linejoin="round"/>
<path d="M45.5 222.1L59.8 218.2" stroke="#263238" stroke-width="2" stroke-miterlimit="10" stroke-linecap="round" stroke-linejoin="round"/>
<path d="M53.2999 230.2L113.6 213.5" stroke="#263238" stroke-width="2" stroke-miterlimit="10" stroke-linecap="round" stroke-linejoin="round"/>
<path d="M54.3999 234.2L114.7 217.5" stroke="#263238" stroke-width="2" stroke-miterlimit="10" stroke-linecap="round" stroke-linejoin="round"/>
<path d="M55.7 238.9L107.1 224.6" stroke="#263238" stroke-width="2" stroke-miterlimit="10" stroke-linecap="round" stroke-linejoin="round"/>
<path d="M62.0299 241.824L57.1161 243.189L58.4814 248.103L63.3952 246.738L62.0299 241.824Z" stroke="#263238" stroke-miterlimit="10" stroke-linecap="round" stroke-linejoin="round"/>
<path d="M70.9257 239.32L66.0118 240.685L67.3771 245.599L72.291 244.234L70.9257 239.32Z" stroke="#263238" stroke-miterlimit="10" stroke-linecap="round" stroke-linejoin="round"/>
<path d="M79.8173 236.818L74.9034 238.183L76.2687 243.097L81.1826 241.732L79.8173 236.818Z" stroke="#263238" stroke-miterlimit="10" stroke-linecap="round" stroke-linejoin="round"/>
<path d="M88.7088 234.316L83.7949 235.681L85.1602 240.595L90.074 239.23L88.7088 234.316Z" stroke="#263238" stroke-miterlimit="10" stroke-linecap="round" stroke-linejoin="round"/>
<path d="M50.0999 231.1C50.2999 231.8 49.8999 232.5 49.1999 232.7C48.4999 232.9 47.7999 232.5 47.5999 231.8C47.3999 231.1 47.7999 230.4 48.4999 230.2C49.1999 230 49.8999 230.4 50.0999 231.1Z" fill="#263238"/>
<path d="M59.7999 253.7L120.1 236.9" stroke="#263238" stroke-width="2" stroke-miterlimit="10" stroke-linecap="round" stroke-linejoin="round"/>
<path d="M60.8999 257.7L121.2 241" stroke="#263238" stroke-width="2" stroke-miterlimit="10" stroke-linecap="round" stroke-linejoin="round"/>
<path d="M62.2 262.4L113.7 248.1" stroke="#263238" stroke-width="2" stroke-miterlimit="10" stroke-linecap="round" stroke-linejoin="round"/>
<path d="M68.6099 265.205L63.696 266.57L65.0613 271.484L69.9752 270.119L68.6099 265.205Z" stroke="#263238" stroke-miterlimit="10" stroke-linecap="round" stroke-linejoin="round"/>
<path d="M77.5249 262.801L72.6111 264.166L73.9764 269.08L78.8902 267.715L77.5249 262.801Z" stroke="#263238" stroke-miterlimit="10" stroke-linecap="round" stroke-linejoin="round"/>
<path d="M86.3203 260.326L81.4065 261.691L82.7718 266.605L87.6856 265.24L86.3203 260.326Z" stroke="#263238" stroke-miterlimit="10" stroke-linecap="round" stroke-linejoin="round"/>
<path d="M95.2163 257.821L90.3025 259.187L91.6678 264.101L96.5816 262.735L95.2163 257.821Z" stroke="#263238" stroke-miterlimit="10" stroke-linecap="round" stroke-linejoin="round"/>
<path d="M56.5999 254.6C56.7999 255.3 56.3999 256 55.6999 256.2C54.9999 256.4 54.2999 256 54.0999 255.3C53.8999 254.6 54.2999 253.9 54.9999 253.7C55.6999 253.5 56.3999 253.9 56.5999 254.6Z" fill="#263238"/>
<path d="M66.2999 277.2L126.6 260.4" stroke="#263238" stroke-width="2" stroke-miterlimit="10" stroke-linecap="round" stroke-linejoin="round"/>
<path d="M67.4999 281.2L127.7 264.4" stroke="#263238" stroke-width="2" stroke-miterlimit="10" stroke-linecap="round" stroke-linejoin="round"/>
<path d="M68.7999 285.9L120.2 271.6" stroke="#263238" stroke-width="2" stroke-miterlimit="10" stroke-linecap="round" stroke-linejoin="round"/>
<path d="M75.1136 288.712L70.1997 290.077L71.565 294.991L76.4788 293.626L75.1136 288.712Z" stroke="#263238" stroke-miterlimit="10" stroke-linecap="round" stroke-linejoin="round"/>
<path d="M84.0087 286.208L79.0948 287.573L80.4601 292.487L85.374 291.122L84.0087 286.208Z" stroke="#263238" stroke-miterlimit="10" stroke-linecap="round" stroke-linejoin="round"/>
<path d="M92.9236 283.805L88.0098 285.17L89.375 290.084L94.2889 288.719L92.9236 283.805Z" stroke="#263238" stroke-miterlimit="10" stroke-linecap="round" stroke-linejoin="round"/>
<path d="M101.815 281.303L96.9015 282.668L98.2668 287.582L103.181 286.217L101.815 281.303Z" stroke="#263238" stroke-miterlimit="10" stroke-linecap="round" stroke-linejoin="round"/>
<path d="M63.0999 278.1C63.2999 278.8 62.8999 279.5 62.1999 279.7C61.4999 279.9 60.7999 279.5 60.5999 278.8C60.3999 278.1 60.7999 277.4 61.4999 277.2C62.1999 277 62.8999 277.4 63.0999 278.1Z" fill="#263238"/>
<path d="M73 301.3L133.3 284.5" stroke="#263238" stroke-width="2" stroke-miterlimit="10" stroke-linecap="round" stroke-linejoin="round"/>
<path d="M74.2 305.3L134.5 288.6" stroke="#263238" stroke-width="2" stroke-miterlimit="10" stroke-linecap="round" stroke-linejoin="round"/>
<path d="M75.5 310L126.9 295.7" stroke="#263238" stroke-width="2" stroke-miterlimit="10" stroke-linecap="round" stroke-linejoin="round"/>
<path d="M81.805 312.814L76.8911 314.18L78.2564 319.093L83.1702 317.728L81.805 312.814Z" stroke="#263238" stroke-miterlimit="10" stroke-linecap="round" stroke-linejoin="round"/>
<path d="M90.7233 310.409L85.8094 311.774L87.1747 316.688L92.0886 315.323L90.7233 310.409Z" stroke="#263238" stroke-miterlimit="10" stroke-linecap="round" stroke-linejoin="round"/>
<path d="M99.6149 307.907L94.701 309.272L96.0663 314.186L100.98 312.821L99.6149 307.907Z" stroke="#263238" stroke-miterlimit="10" stroke-linecap="round" stroke-linejoin="round"/>
<path d="M108.507 305.405L103.593 306.77L104.958 311.684L109.872 310.319L108.507 305.405Z" stroke="#263238" stroke-miterlimit="10" stroke-linecap="round" stroke-linejoin="round"/>
<path d="M69.8 302.2C70 302.9 69.6 303.6 68.9 303.8C68.2 304 67.5 303.6 67.3 302.9C67.1 302.2 67.5 301.5 68.2 301.3C68.9 301.1 69.6 301.5 69.8 302.2Z" fill="#263238"/>
<path d="M67.7999 242.3L68.7999 243.1L70.3999 239.4" stroke="#263238" stroke-width="2" stroke-miterlimit="10" stroke-linecap="round" stroke-linejoin="round"/>
<path d="M65.4 268.5L66.4 269.3L68 265.6" stroke="#263238" stroke-width="2" stroke-miterlimit="10" stroke-linecap="round" stroke-linejoin="round"/>
<path d="M71.9 291.7L72.9 292.6L74.5 288.9" stroke="#263238" stroke-width="2" stroke-miterlimit="10" stroke-linecap="round" stroke-linejoin="round"/>
<path d="M96.4 310.7L97.4 311.6L99 307.9" stroke="#263238" stroke-width="2" stroke-miterlimit="10" stroke-linecap="round" stroke-linejoin="round"/>
<path d="M158.196 161.484L74.9808 169.478L86.9994 294.599L170.215 286.606L158.196 161.484Z" fill="white" stroke="#263238" stroke-miterlimit="10" stroke-linecap="round" stroke-linejoin="round"/>
<path d="M82 177.1L103.7 175" stroke="#263238" stroke-width="2" stroke-miterlimit="10" stroke-linecap="round" stroke-linejoin="round"/>
<path d="M82.4 181.3L97.2 179.9" stroke="#263238" stroke-width="2" stroke-miterlimit="10" stroke-linecap="round" stroke-linejoin="round"/>
<path d="M88.7 190.6L151 184.6" stroke="#263238" stroke-width="2" stroke-miterlimit="10" stroke-linecap="round" stroke-linejoin="round"/>
<path d="M89.1 194.7L151.4 188.8" stroke="#263238" stroke-width="2" stroke-miterlimit="10" stroke-linecap="round" stroke-linejoin="round"/>
<path d="M89.5 199.6L142.7 194.5" stroke="#263238" stroke-width="2" stroke-miterlimit="10" stroke-linecap="round" stroke-linejoin="round"/>
<path d="M95.2404 203.469L90.1638 203.956L90.6515 209.033L95.7281 208.545L95.2404 203.469Z" stroke="#263238" stroke-miterlimit="10" stroke-linecap="round" stroke-linejoin="round"/>
<path d="M104.438 202.567L99.3618 203.054L99.8494 208.131L104.926 207.643L104.438 202.567Z" stroke="#263238" stroke-miterlimit="10" stroke-linecap="round" stroke-linejoin="round"/>
<path d="M113.646 201.765L108.569 202.252L109.057 207.329L114.133 206.841L113.646 201.765Z" stroke="#263238" stroke-miterlimit="10" stroke-linecap="round" stroke-linejoin="round"/>
<path d="M122.844 200.863L117.767 201.351L118.255 206.427L123.332 205.94L122.844 200.863Z" stroke="#263238" stroke-miterlimit="10" stroke-linecap="round" stroke-linejoin="round"/>
<path d="M85.3 190.9C85.4 191.6 84.9 192.2 84.2 192.3C83.5 192.4 82.9 191.9 82.8 191.2C82.7 190.5 83.2 189.9 83.9 189.8C84.7 189.7 85.3 190.2 85.3 190.9Z" fill="#263238"/>
<path d="M91 214.8L153.3 208.9" stroke="#263238" stroke-width="2" stroke-miterlimit="10" stroke-linecap="round" stroke-linejoin="round"/>
<path d="M91.4 219L153.7 213" stroke="#263238" stroke-width="2" stroke-miterlimit="10" stroke-linecap="round" stroke-linejoin="round"/>
<path d="M91.9 223.8L145 218.7" stroke="#263238" stroke-width="2" stroke-miterlimit="10" stroke-linecap="round" stroke-linejoin="round"/>
<path d="M97.6445 227.761L92.568 228.248L93.0556 233.325L98.1321 232.837L97.6445 227.761Z" stroke="#263238" stroke-miterlimit="10" stroke-linecap="round" stroke-linejoin="round"/>
<path d="M106.843 226.859L101.766 227.347L102.254 232.423L107.33 231.936L106.843 226.859Z" stroke="#263238" stroke-miterlimit="10" stroke-linecap="round" stroke-linejoin="round"/>
<path d="M115.941 225.967L110.864 226.454L111.352 231.531L116.428 231.043L115.941 225.967Z" stroke="#263238" stroke-miterlimit="10" stroke-linecap="round" stroke-linejoin="round"/>
<path d="M125.139 225.066L120.063 225.554L120.55 230.63L125.627 230.143L125.139 225.066Z" stroke="#263238" stroke-miterlimit="10" stroke-linecap="round" stroke-linejoin="round"/>
<path d="M87.7 215.2C87.8 215.9 87.3 216.5 86.6 216.6C85.9 216.7 85.3 216.2 85.2 215.5C85.1 214.8 85.6 214.2 86.3 214.1C87 213.9 87.6 214.5 87.7 215.2Z" fill="#263238"/>
<path d="M93.2999 239.1L155.6 233.1" stroke="#263238" stroke-width="2" stroke-miterlimit="10" stroke-linecap="round" stroke-linejoin="round"/>
<path d="M93.7 243.2L156 237.3" stroke="#263238" stroke-width="2" stroke-miterlimit="10" stroke-linecap="round" stroke-linejoin="round"/>
<path d="M94.2 248.1L147.3 243" stroke="#263238" stroke-width="2" stroke-miterlimit="10" stroke-linecap="round" stroke-linejoin="round"/>
<path d="M99.9396 251.963L94.863 252.451L95.3507 257.528L100.427 257.04L99.9396 251.963Z" stroke="#263238" stroke-miterlimit="10" stroke-linecap="round" stroke-linejoin="round"/>
<path d="M109.147 251.162L104.071 251.65L104.559 256.726L109.635 256.238L109.147 251.162Z" stroke="#263238" stroke-miterlimit="10" stroke-linecap="round" stroke-linejoin="round"/>
<path d="M118.345 250.259L113.269 250.747L113.756 255.823L118.833 255.336L118.345 250.259Z" stroke="#263238" stroke-miterlimit="10" stroke-linecap="round" stroke-linejoin="round"/>
<path d="M127.543 249.358L122.467 249.846L122.954 254.923L128.031 254.435L127.543 249.358Z" stroke="#263238" stroke-miterlimit="10" stroke-linecap="round" stroke-linejoin="round"/>
<path d="M89.9999 239.4C90.0999 240.1 89.5999 240.7 88.8999 240.8C88.1999 240.9 87.5999 240.4 87.4999 239.7C87.3999 239 87.8999 238.4 88.5999 238.3C89.2999 238.2 89.8999 238.7 89.9999 239.4Z" fill="#263238"/>
<path d="M95.7 264L158 258.1" stroke="#263238" stroke-width="2" stroke-miterlimit="10" stroke-linecap="round" stroke-linejoin="round"/>
<path d="M96.1 268.2L158.4 262.2" stroke="#263238" stroke-width="2" stroke-miterlimit="10" stroke-linecap="round" stroke-linejoin="round"/>
<path d="M96.6 273L149.7 267.9" stroke="#263238" stroke-width="2" stroke-miterlimit="10" stroke-linecap="round" stroke-linejoin="round"/>
<path d="M102.345 276.962L97.2683 277.45L97.7559 282.526L102.832 282.039L102.345 276.962Z" stroke="#263238" stroke-miterlimit="10" stroke-linecap="round" stroke-linejoin="round"/>
<path d="M111.543 276.061L106.466 276.548L106.954 281.625L112.03 281.137L111.543 276.061Z" stroke="#263238" stroke-miterlimit="10" stroke-linecap="round" stroke-linejoin="round"/>
<path d="M120.741 275.159L115.664 275.647L116.152 280.723L121.228 280.236L120.741 275.159Z" stroke="#263238" stroke-miterlimit="10" stroke-linecap="round" stroke-linejoin="round"/>
<path d="M129.839 274.267L124.763 274.754L125.25 279.831L130.327 279.343L129.839 274.267Z" stroke="#263238" stroke-miterlimit="10" stroke-linecap="round" stroke-linejoin="round"/>
<path d="M92.3999 264.4C92.4999 265.1 92 265.7 91.3 265.8C90.6 265.9 89.9999 265.4 89.8999 264.7C89.7999 264 90.2999 263.4 90.9999 263.3C91.6999 263.1 92.2999 263.7 92.3999 264.4Z" fill="#263238"/>
<path d="M92.2 205.8L93 206.9L95.3 203.5" stroke="#263238" stroke-width="2" stroke-miterlimit="10" stroke-linecap="round" stroke-linejoin="round"/>
<path d="M112.9 228L113.7 229L116 225.7" stroke="#263238" stroke-width="2" stroke-miterlimit="10" stroke-linecap="round" stroke-linejoin="round"/>
<path d="M106.1 253.7L106.9 254.7L109.1 251.3" stroke="#263238" stroke-width="2" stroke-miterlimit="10" stroke-linecap="round" stroke-linejoin="round"/>
<path d="M126.7 276.6L127.5 277.7L129.8 274.3" stroke="#263238" stroke-width="2" stroke-miterlimit="10" stroke-linecap="round" stroke-linejoin="round"/>
<path d="M259.9 112.2H208.2C204.4 112.2 201.3 115.3 201.3 119.1V163.5C201.3 167.3 204.4 170.4 208.2 170.4H231.1L244.2 186.2L240.9 170.4H259.8C263.6 170.4 266.7 167.3 266.7 163.5V119.1C266.8 115.3 263.7 112.2 259.9 112.2Z" fill="white" stroke="#263238" stroke-miterlimit="10" stroke-linecap="round" stroke-linejoin="round"/>
<path d="M238.2 136.6V131.9L234.7 131.6C234.5 130.9 234.2 130.1 233.8 129.5L236.1 126.8L232.8 123.5L230.1 125.8C229.4 125.4 228.7 125.1 228 124.9L227.7 121.4H223L222.7 124.9C222 125.1 221.2 125.4 220.6 125.8L217.9 123.5L214.6 126.8L216.9 129.5C216.5 130.2 216.2 130.9 216 131.6L212.5 131.9V136.6L216 136.9C216.2 137.6 216.5 138.4 216.9 139L214.6 141.7L217.9 145L220.6 142.7C221.3 143.1 222 143.4 222.7 143.6L223 147.1H227.7L228 143.6C228.7 143.4 229.5 143.1 230.1 142.7L232.8 145L236.1 141.7L233.8 139C234.2 138.3 234.5 137.6 234.7 136.9L238.2 136.6ZM225.3 139.7C222.3 139.7 219.8 137.3 219.8 134.2C219.8 131.2 222.2 128.7 225.3 128.7C228.3 128.7 230.8 131.1 230.8 134.2C230.8 137.2 228.3 139.7 225.3 139.7Z" fill="#A91919"/>
<path d="M253.8 147V143.7L251.3 143.5C251.2 143 250.9 142.5 250.7 142L252.3 140.1L249.9 137.7L248 139.3C247.5 139 247 138.8 246.5 138.7L246.3 136.2H243L242.8 138.7C242.3 138.8 241.8 139.1 241.3 139.3L239.4 137.7L237 140.1L238.6 142C238.3 142.5 238.1 143 238 143.5L235.5 143.7V147L238 147.2C238.1 147.7 238.4 148.2 238.6 148.7L237 150.6L239.4 153L241.3 151.4C241.8 151.7 242.3 151.9 242.8 152L243 154.5H246.3L246.5 152C247 151.9 247.5 151.6 248 151.4L249.9 153L252.3 150.6L250.7 148.7C251 148.2 251.2 147.7 251.3 147.2L253.8 147ZM244.6 149.3C242.5 149.3 240.7 147.6 240.7 145.4C240.7 143.3 242.4 141.5 244.6 141.5C246.7 141.5 248.5 143.2 248.5 145.4C248.5 147.5 246.7 149.3 244.6 149.3Z" fill="#A91919"/>
<path d="M237.4 154.8V152.4L235.6 152.2C235.5 151.8 235.3 151.5 235.2 151.1L236.4 149.7L234.7 148L233.3 149.2C233 149 232.6 148.9 232.2 148.8L232 147H229.6L229.4 148.8C229 148.9 228.7 149.1 228.3 149.2L226.9 148L225.2 149.7L226.4 151.1C226.2 151.4 226.1 151.8 226 152.2L224.2 152.4V154.8L226 155C226.1 155.4 226.3 155.7 226.4 156.1L225.2 157.5L226.9 159.2L228.3 158C228.6 158.2 229 158.3 229.4 158.4L229.6 160.2H232L232.2 158.4C232.6 158.3 232.9 158.1 233.3 158L234.7 159.2L236.4 157.5L235.2 156.1C235.4 155.8 235.5 155.4 235.6 155L237.4 154.8ZM230.9 156.4C229.4 156.4 228.1 155.2 228.1 153.6C228.1 152 229.3 150.8 230.9 150.8C232.5 150.8 233.7 152 233.7 153.6C233.7 155.2 232.4 156.4 230.9 156.4Z" fill="#A91919"/>
<path d="M232.7 282.8L273 431.4H279L238.7 282.8H232.7Z" fill="#757575" stroke="#263238" stroke-miterlimit="10" stroke-linecap="round" stroke-linejoin="round"/>
<path d="M323.5 389.3H247.1V395.5H323.5V389.3Z" fill="#999999" stroke="#263238" stroke-miterlimit="10" stroke-linecap="round" stroke-linejoin="round"/>
<path d="M364.2 249.5L314.9 431.5H308.9L358.2 249.5C360 242.8 355.8 237.3 348.9 237.3H306.4C299.5 237.3 292.3 242.8 290.5 249.5L241.2 431.5H235.2L284.5 249.5C287.2 239.6 297.7 231.5 308 231.5H350.5C360.7 231.5 366.9 239.5 364.2 249.5Z" fill="#757575" stroke="#263238" stroke-miterlimit="10" stroke-linecap="round" stroke-linejoin="round"/>
<path d="M364.9 249.5L352.7 294.7C351.7 298.4 347.7 301.5 343.9 301.5H274C270.1 301.5 267.8 298.5 268.8 294.7L281 249.5C282 245.8 286 242.7 289.8 242.7H359.6C363.6 242.8 366 245.8 364.9 249.5Z" fill="#219653"/>
<path opacity="0.2" d="M364.9 249.5L352.7 294.7C351.7 298.4 347.7 301.5 343.9 301.5H274C270.1 301.5 267.8 298.5 268.8 294.7L281 249.5C282 245.8 286 242.7 289.8 242.7H325.9C341.5 258.7 339.5 288.2 338.5 297.1C341.7 296.3 344.6 293.7 345.5 290.6L357.7 245.4C358 244.4 358 243.5 357.8 242.7H359.6C363.6 242.8 366 245.8 364.9 249.5Z" fill="black" fill-opacity="0.7"/>
<path d="M364.9 249.5L352.7 294.7C351.7 298.4 347.7 301.5 343.9 301.5H274C270.1 301.5 267.8 298.5 268.8 294.7L281 249.5C282 245.8 286 242.7 289.8 242.7H359.6C363.6 242.8 366 245.8 364.9 249.5Z" stroke="#263238" stroke-miterlimit="10" stroke-linecap="round" stroke-linejoin="round"/>
<path d="M323.9 347.2L346.7 431.4H352.7L329.9 347.2H323.9Z" fill="#757575" stroke="#263238" stroke-miterlimit="10" stroke-linecap="round" stroke-linejoin="round"/>
<path d="M329.9 337.5V345.7H240V337.5C240 334.1 242.7 331.4 246.1 331.4H323.9C326.7 331.4 329.1 333.3 329.8 335.9C329.9 336.4 329.9 337 329.9 337.5Z" fill="#219653"/>
<path opacity="0.2" d="M329.7 335.9C326.8 339.3 321.6 342.8 312.6 345.7H240V337.5C240 334.1 242.7 331.4 246.1 331.4H323.9C326.7 331.5 329 333.4 329.7 335.9Z" fill="black" fill-opacity="0.7"/>
<path d="M329.9 337.5V345.7H240V337.5C240 334.1 242.7 331.4 246.1 331.4H323.9C326.7 331.4 329.1 333.3 329.8 335.9C329.9 336.4 329.9 337 329.9 337.5Z" stroke="#263238" stroke-miterlimit="10" stroke-linecap="round" stroke-linejoin="round"/>
<path d="M333 351H237.8C236.9 351 236.1 350.2 236.1 349.3V345C236.1 344.1 236.9 343.3 237.8 343.3H333C333.9 343.3 334.7 344.1 334.7 345V349.3C334.7 350.2 333.9 351 333 351Z" fill="#999999" stroke="#263238" stroke-miterlimit="10" stroke-linecap="round" stroke-linejoin="round"/>
<path d="M237.1 343.5C232.8 347.9 253.7 416.9 253.7 416.9C251.4 418.9 248.1 419.8 244.9 420.2C240.3 420.8 236.1 420.3 236.1 420.3C236.1 420.3 206.2 347.7 214.4 329.7C222.6 311.7 273.8 303.4 273.8 303.4L276 298L302.5 294.3L306.9 326.7C306.9 326.7 302.6 327.1 296 328C278.3 330.2 245 335.5 237.1 343.5Z" fill="#263238"/>
<path opacity="0.3" d="M253.7 416.9C251.4 418.9 248.1 419.8 244.9 420.2C239.1 398.6 224.3 341 229.9 333.9C236.8 325.2 271 317.3 271 317.3C271.1 312.9 283.1 308.9 283.1 308.9L295.8 328C278.3 330.2 245 335.5 237 343.5C232.8 347.9 253.7 416.9 253.7 416.9Z" fill="black"/>
<path d="M237.1 343.5C232.8 347.9 253.7 416.9 253.7 416.9C251.4 418.9 248.1 419.8 244.9 420.2C240.3 420.8 236.1 420.3 236.1 420.3C236.1 420.3 206.2 347.7 214.4 329.7C222.6 311.7 273.8 303.4 273.8 303.4L276 298L302.5 294.3L306.9 326.7C306.9 326.7 302.6 327.1 296 328C278.3 330.2 245 335.5 237.1 343.5Z" stroke="#263238" stroke-miterlimit="10" stroke-linecap="round" stroke-linejoin="round"/>
<path d="M222.3 278.2C217.9 277.4 249.2 250 249.2 250L264.3 260.1C264.3 260.1 238.7 278.2 234.6 278.7C230.5 279.2 222.3 278.2 222.3 278.2Z" fill="white"/>
<path opacity="0.2" d="M222.3 278.2C217.9 277.4 249.2 250 249.2 250L264.3 260.1C264.3 260.1 238.7 278.2 234.6 278.7C230.5 279.2 222.3 278.2 222.3 278.2Z" fill="black" fill-opacity="0.7"/>
<path d="M222.3 278.2C217.9 277.4 249.2 250 249.2 250L264.3 260.1C264.3 260.1 238.7 278.2 234.6 278.7C230.5 279.2 222.3 278.2 222.3 278.2Z" stroke="#263238" stroke-miterlimit="10" stroke-linecap="round" stroke-linejoin="round"/>
<path d="M227.8 266.7C227.8 266.7 234.4 268.3 236.4 269.7C238.4 271.1 237.8 276 237.8 276C237.8 276 229 273.5 227.8 266.7Z" fill="white" stroke="#263238" stroke-miterlimit="10" stroke-linecap="round" stroke-linejoin="round"/>
<path d="M223.6 254.1L235.8 277.5H237.2L225.7 253L223.6 254.1Z" fill="#263238"/>
<path d="M234.6 271C234.6 271 226.9 265.5 225 265.5C223.1 265.5 217.5 272.2 217.5 275.5C217.5 278.8 229.8 280.7 232.2 277.8C233.4 276.4 231 273 231 273C231 273 234.6 276.7 235.6 277.3C236.6 277.9 238.5 277.1 238.5 277.1C238.5 277.1 236 273.1 234.6 271Z" fill="white" stroke="#263238" stroke-miterlimit="10" stroke-linecap="round" stroke-linejoin="round"/>
<path d="M231 278.7C231 278.7 228.1 274.9 224.6 273.1" stroke="#263238" stroke-miterlimit="10" stroke-linecap="round" stroke-linejoin="round"/>
<path d="M231 273.1C231 273.1 228.3 270.8 226.5 270.3" stroke="#263238" stroke-miterlimit="10" stroke-linecap="round" stroke-linejoin="round"/>
<path d="M222.6 276C222.6 276 226.9 278.3 228 279.2" stroke="#263238" stroke-miterlimit="10" stroke-linecap="round" stroke-linejoin="round"/>
<path d="M259 238.1C255.1 240.8 237.4 259 237.4 259C237.4 259 245.7 268.4 252.9 269.8L272.5 260.3L259 238.1Z" fill="#219653" stroke="#263238" stroke-miterlimit="10" stroke-linecap="round" stroke-linejoin="round"/>
<path opacity="0.4" d="M259 238.1C255.1 240.8 237.4 259 237.4 259C237.4 259 245.7 268.4 252.9 269.8L272.5 260.3L259 238.1Z" fill="white" stroke="#263238" stroke-miterlimit="10" stroke-linecap="round" stroke-linejoin="round"/>
<path d="M249.5 409.6L257.8 431.5C257.8 431.5 259.2 437.1 234.1 435.4L220.3 434.2L249.5 409.6Z" fill="#219653"/>
<path opacity="0.3" d="M249.5 409.6L257.8 431.5C257.8 431.5 259.2 437.1 234.1 435.4L220.3 434.2L249.5 409.6Z" fill="black"/>
<path d="M249.5 409.6L257.8 431.5C257.8 431.5 259.2 437.1 234.1 435.4L220.3 434.2L249.5 409.6Z" stroke="#263238" stroke-miterlimit="10" stroke-linecap="round" stroke-linejoin="round"/>
<path d="M246.3 420.1C246.3 420.1 248.1 428.6 246.3 434.9C246.3 434.9 219.8 439.1 213.9 437.5C208 435.9 204.4 433 204.2 431.5C204.2 431.5 204.4 427.4 210.3 426.3C216.2 425.1 228.1 424.3 232.7 417.6C237.4 410.8 246.3 420.1 246.3 420.1Z" fill="#219653" stroke="#263238" stroke-miterlimit="10" stroke-linecap="round" stroke-linejoin="round"/>
<path d="M281.3 297.2C289.8 285.1 328.7 299.7 328.7 299.7C328.7 299.7 332.4 328.8 316.9 336.5C301.4 344.3 279 343.8 273 350.1L248.4 422.7C248.4 422.7 239.6 426.4 226.7 420.6C226.7 420.6 242.3 365.8 246.9 346.3C251.4 327 280.8 314 280.8 314C280.8 314 278.3 311.2 277.4 307.9" fill="#263238"/>
<path d="M281.3 297.2C289.8 285.1 328.7 299.7 328.7 299.7C328.7 299.7 332.4 328.8 316.9 336.5C301.4 344.3 279 343.8 273 350.1L248.4 422.7C248.4 422.7 239.6 426.4 226.7 420.6C226.7 420.6 242.3 365.8 246.9 346.3C251.4 327 280.8 314 280.8 314C280.8 314 278.3 311.2 277.4 307.9" stroke="#263238" stroke-miterlimit="10" stroke-linecap="round" stroke-linejoin="round"/>
<path d="M320.7 325C319.5 326.1 318.1 327.1 316.8 328.1" stroke="white" stroke-miterlimit="10" stroke-linecap="round" stroke-linejoin="round"/>
<path d="M323.9 300.4C327.1 307.3 327.3 316.1 322.9 322.4" stroke="white" stroke-miterlimit="10" stroke-linecap="round" stroke-linejoin="round"/>
<path d="M315 301.5C315 301.5 314.2 306.8 316.6 308.9C319 311 326.2 312.1 326.2 312.1" stroke="white" stroke-miterlimit="10" stroke-linecap="round" stroke-linejoin="round"/>
<path d="M283.1 301.7C283.1 301.7 283.4 307 281.3 306.8C279.2 306.5 279 308.9 279 308.9" stroke="white" stroke-miterlimit="10" stroke-linecap="round" stroke-linejoin="round"/>
<path d="M259.5 242.1C259.2 240.7 259 239.3 259 238C259 238 271 227.9 286.4 227.9C304.8 228 316 233.8 320.6 241.8C327.7 254.5 328.7 299.6 328.7 299.6C328.7 299.6 282.5 306.7 275.9 298C274.8 296.5 275.6 285.7 275.6 285.7C275.6 285.7 270.4 272.1 269.3 261.6C269.3 261.6 267.3 258.9 265.1 255.1C263.6 252.6 262 249.6 260.8 246.5" fill="#219653"/>
<path d="M259.5 242.1C259.2 240.7 259 239.3 259 238C259 238 271 227.9 286.4 227.9C304.8 228 316 233.8 320.6 241.8C327.7 254.5 328.7 299.6 328.7 299.6C328.7 299.6 282.5 306.7 275.9 298C274.8 296.5 275.6 285.7 275.6 285.7C275.6 285.7 270.4 272.1 269.3 261.6C269.3 261.6 267.3 258.9 265.1 255.1C263.6 252.6 262 249.6 260.8 246.5" stroke="#263238" stroke-miterlimit="10" stroke-linecap="round" stroke-linejoin="round"/>
<g opacity="0.6">
<path d="M259.5 242.1C259.2 240.7 259 239.3 259 238C259 238 271 227.9 286.4 227.9C304.8 228 316 233.8 320.6 241.8C327.7 254.5 328.7 299.6 328.7 299.6C328.7 299.6 282.5 306.7 275.9 298C274.8 296.5 275.6 285.7 275.6 285.7C275.6 285.7 270.4 272.1 269.3 261.6C269.3 261.6 267.3 258.9 265.1 255.1C263.6 252.6 262 249.6 260.8 246.5" fill="white"/>
<path d="M259.5 242.1C259.2 240.7 259 239.3 259 238C259 238 271 227.9 286.4 227.9C304.8 228 316 233.8 320.6 241.8C327.7 254.5 328.7 299.6 328.7 299.6C328.7 299.6 282.5 306.7 275.9 298C274.8 296.5 275.6 285.7 275.6 285.7C275.6 285.7 270.4 272.1 269.3 261.6C269.3 261.6 267.3 258.9 265.1 255.1C263.6 252.6 262 249.6 260.8 246.5" stroke="#263238" stroke-miterlimit="10" stroke-linecap="round" stroke-linejoin="round"/>
</g>
<path d="M277.1 253C277.1 253 284.1 280.4 283.1 286.4C282.6 289.4 284.1 292.5 284.1 292.5C284.1 292.5 280.9 295.7 283.1 299.9" stroke="#263238" stroke-miterlimit="10" stroke-linecap="round" stroke-linejoin="round"/>
<path d="M295.9 275.6C294.5 275.5 293.3 275.2 292.4 274.5L290.3 265.3C290.3 265.3 296.7 266 302.7 264.4L304.9 274.4C304.9 274.4 303.2 274.9 301.1 275.2" stroke="#263238" stroke-miterlimit="10" stroke-linecap="round" stroke-linejoin="round"/>
<path d="M272.1 256.5C272.1 256.5 266.1 230.9 281.2 228C296.3 225 299.5 232.1 298.6 236.9C297.4 243.3 284.9 259 284.9 259L277.1 253L272.1 256.5Z" fill="#219653" stroke="#263238" stroke-miterlimit="10" stroke-linecap="round" stroke-linejoin="round"/>
<path opacity="0.4" d="M272.1 256.5C272.1 256.5 266.1 230.9 281.2 228C296.3 225 299.5 232.1 298.6 236.9C297.4 243.3 284.9 259 284.9 259L277.1 253L272.1 256.5Z" fill="white" stroke="#263238" stroke-miterlimit="10" stroke-linecap="round" stroke-linejoin="round"/>
<path d="M252.3 335.4C252.3 335.4 262.1 324.1 284.2 315.6C284.2 315.6 278.5 313.8 277.2 311.5" stroke="white" stroke-miterlimit="10" stroke-linecap="round" stroke-linejoin="round"/>
<path d="M240.8 370L231.8 402.5" stroke="white" stroke-miterlimit="10" stroke-linecap="round" stroke-linejoin="round"/>
<path d="M309.9 276.5C309.9 276.5 313.9 283.3 330.4 282.6C330.4 282.6 325.9 277.5 319.2 275.6C312.5 273.7 309.9 276.5 309.9 276.5Z" fill="#219653" stroke="#263238" stroke-miterlimit="10" stroke-linecap="round" stroke-linejoin="round"/>
<path d="M246 279.2C246 279.2 249.8 273.3 253.3 272.1C256.8 270.9 267.1 270.8 268.7 270.8C270.3 270.8 298.5 277.9 311.8 282.4L310.6 260.3L328.4 261.7C328.4 261.7 327.7 288.7 324.9 295.9C322.1 303 318.2 301.3 311.4 298.4C284.8 286.9 269.2 278.9 267.7 279.4C266.3 279.6 246 279.2 246 279.2Z" fill="white" stroke="#263238" stroke-miterlimit="10" stroke-linecap="round" stroke-linejoin="round"/>
<path d="M306.1 247.3C305.6 249.2 305.5 251.2 305.7 252.9C306.5 259.8 309.9 276.4 309.9 276.4C309.9 276.4 326.5 278.8 330.4 282.5C330.4 282.5 333.1 260.5 327.6 249.3C322 238.2 316.2 236.9 316.2 236.9C312.6 236 309.2 239.4 307.3 243.8" fill="#219653"/>
<path d="M306.1 247.3C305.6 249.2 305.5 251.2 305.7 252.9C306.5 259.8 309.9 276.4 309.9 276.4C309.9 276.4 326.5 278.8 330.4 282.5C330.4 282.5 333.1 260.5 327.6 249.3C322 238.2 316.2 236.9 316.2 236.9C312.6 236 309.2 239.4 307.3 243.8" stroke="#263238" stroke-miterlimit="10" stroke-linecap="round" stroke-linejoin="round"/>
<g opacity="0.4">
<path d="M306.1 247.3C305.6 249.2 305.5 251.2 305.7 252.9C306.5 259.8 309.9 276.4 309.9 276.4C309.9 276.4 326.5 278.8 330.4 282.5C330.4 282.5 333.1 260.5 327.6 249.3C322 238.2 316.2 236.9 316.2 236.9C312.6 236 309.2 239.4 307.3 243.8" fill="white"/>
<path d="M306.1 247.3C305.6 249.2 305.5 251.2 305.7 252.9C306.5 259.8 309.9 276.4 309.9 276.4C309.9 276.4 326.5 278.8 330.4 282.5C330.4 282.5 333.1 260.5 327.6 249.3C322 238.2 316.2 236.9 316.2 236.9C312.6 236 309.2 239.4 307.3 243.8" stroke="#263238" stroke-miterlimit="10" stroke-linecap="round" stroke-linejoin="round"/>
</g>
<path d="M257.3 255.9C257.3 255.9 260.6 258.8 265.8 260.2" stroke="#263238" stroke-miterlimit="10" stroke-linecap="round" stroke-linejoin="round"/>
<path d="M309.9 255.9C309.9 255.9 315.9 267.2 323.5 269.7" stroke="#263238" stroke-miterlimit="10" stroke-linecap="round" stroke-linejoin="round"/>
<path d="M271 343.2C271 343.2 272.1 344 272.6 347.1" stroke="white" stroke-miterlimit="10" stroke-linecap="round" stroke-linejoin="round"/>
<path d="M266.9 347.1C266.9 347.1 270 347.3 271.8 349.9" stroke="white" stroke-miterlimit="10" stroke-linecap="round" stroke-linejoin="round"/>
<path d="M233.8 335.4C233.8 335.4 237 337 236.3 341.6" stroke="white" stroke-miterlimit="10" stroke-linecap="round" stroke-linejoin="round"/>
<path d="M230.4 339.4C230.4 339.4 234.8 342 235.1 344.3" stroke="white" stroke-miterlimit="10" stroke-linecap="round" stroke-linejoin="round"/>
<path d="M281.1 311.4C281.1 311.4 290.8 312.8 293 311.4" stroke="white" stroke-miterlimit="10" stroke-linecap="round" stroke-linejoin="round"/>
<path d="M277.1 251.9C277.1 251.9 275.9 248.9 276.1 244.5C276.1 243.7 276.2 242.8 276.4 241.9L274.7 239.2L272.5 235.8L275 225.7C275 225.7 291 228.8 292.2 233.2C293.5 237.7 277.1 251.9 277.1 251.9Z" fill="white"/>
<path opacity="0.2" d="M276.1 244.4C276.1 243.6 276.2 242.7 276.4 241.8L274.7 239.1C277.5 238.5 280.5 237.3 282.5 234.7C282.5 234.8 283 241.8 276.1 244.4Z" fill="black" fill-opacity="0.7"/>
<path d="M277.1 251.9C277.1 251.9 275.9 248.9 276.1 244.5C276.1 243.7 276.2 242.8 276.4 241.9L274.7 239.2L272.5 235.8L275 225.7C275 225.7 291 228.8 292.2 233.2C293.5 237.7 277.1 251.9 277.1 251.9Z" stroke="#263238" stroke-miterlimit="10" stroke-linecap="round" stroke-linejoin="round"/>
<path d="M287.2 226.6C292.1 213.6 288.9 191.5 264.9 195.7C250.8 198.2 249.1 215.2 253.8 222.8C258.5 230.4 253.5 230.6 260.6 236.2C263.5 238.5 265.8 242.3 269.2 242.6C273.3 242.9 278.5 239 282.4 234.9" fill="white"/>
<path d="M287.2 226.6C292.1 213.6 288.9 191.5 264.9 195.7C250.8 198.2 249.1 215.2 253.8 222.8C258.5 230.4 253.5 230.6 260.6 236.2C263.5 238.5 265.8 242.3 269.2 242.6C273.3 242.9 278.5 239 282.4 234.9" stroke="#263238" stroke-miterlimit="10" stroke-linecap="round" stroke-linejoin="round"/>
<path d="M263.5 222.8C263.5 222.8 267 219.6 271.2 220.9" stroke="#263238" stroke-miterlimit="10" stroke-linecap="round" stroke-linejoin="round"/>
<path d="M256.9 222.8C256.9 222.8 255.7 220.3 252.3 219.7" stroke="#263238" stroke-miterlimit="10" stroke-linecap="round" stroke-linejoin="round"/>
<path d="M259.2 227.4C259.2 227.4 258.7 230 258 232.6C257.4 235.1 262.2 233.8 262 233.4" fill="white"/>
<path d="M259.2 227.4C259.2 227.4 258.7 230 258 232.6C257.4 235.1 262.2 233.8 262 233.4" stroke="#263238" stroke-miterlimit="10" stroke-linecap="round" stroke-linejoin="round"/>
<path d="M264.6 236.8C264.6 236.8 267.7 236.1 269.9 233.3" stroke="#263238" stroke-miterlimit="10" stroke-linecap="round" stroke-linejoin="round"/>
<path d="M268.5 226.1C268.7 226.8 268.4 227.5 267.8 227.7C267.2 227.9 266.6 227.4 266.4 226.7C266.2 226 266.5 225.3 267.1 225.1C267.6 224.9 268.3 225.4 268.5 226.1Z" fill="#263238"/>
<path d="M257.8 225.9C258 226.6 257.9 227.3 257.5 227.4C257.1 227.5 256.7 227 256.5 226.3C256.3 225.6 256.4 224.9 256.8 224.8C257.1 224.6 257.6 225.1 257.8 225.9Z" fill="#263238"/>
<path d="M272.4 209.4C272.4 209.4 268.7 219.1 259.5 218.9C259.5 218.9 262.7 216.5 263.6 214.1C263.6 214.1 256.5 221.1 249.4 217.5C242.3 213.9 245.8 197.4 256.7 190.8C267.6 184.2 278.6 186 282.4 192.3C282.4 192.3 290 191.6 293.3 202.8C296.3 212.8 291.5 228 286.8 228.1C279.5 228.4 278.1 220.5 278.1 220.5C278.1 220.5 273.7 216.7 272.4 209.4Z" fill="#263238" stroke="#263238" stroke-miterlimit="10" stroke-linecap="round" stroke-linejoin="round"/>
<path d="M280.4 226.7C280.4 226.7 280.2 217.5 285.4 218.6C290.6 219.7 286.8 230.3 282.9 230.2" fill="white"/>
<path d="M280.4 226.7C280.4 226.7 280.2 217.5 285.4 218.6C290.6 219.7 286.8 230.3 282.9 230.2" stroke="#263238" stroke-miterlimit="10" stroke-linecap="round" stroke-linejoin="round"/>
<path d="M264.2 284.3H183.6C182.7 284.3 182 283.6 182 282.7V279.9C182 279 182.7 278.3 183.6 278.3H264.2C265.1 278.3 265.8 279 265.8 279.9V282.7C265.8 283.5 265.1 284.3 264.2 284.3Z" fill="#219653" stroke="#263238" stroke-miterlimit="10" stroke-linecap="round" stroke-linejoin="round"/>
<path d="M64.6 400.3H30.6L34.1 431.4H61L64.6 400.3Z" fill="#263238" stroke="#263238" stroke-miterlimit="10" stroke-linecap="round" stroke-linejoin="round"/>
<path d="M68.6 378.7C68.6 378.7 53.7 379.9 53.1 390.8C53.1 390.8 68.2 397.8 68.6 378.7Z" fill="#219653" stroke="#263238" stroke-miterlimit="10" stroke-linecap="round" stroke-linejoin="round"/>
<path d="M39.2 381.4C39.2 381.4 30.9 370.2 17.5 375.9C17.5 376 25.7 389.5 39.2 381.4Z" fill="#219653" stroke="#263238" stroke-miterlimit="10" stroke-linecap="round" stroke-linejoin="round"/>
<path d="M18.7 346C18.7 346 16.3 367.6 36 361.6C35.9 361.6 29.7 345.8 18.7 346Z" fill="#219653" stroke="#263238" stroke-miterlimit="10" stroke-linecap="round" stroke-linejoin="round"/>
<path d="M42.8 334C42.8 334 27.3 342.4 38.7 355.1C38.7 355.1 49.6 346 42.8 334Z" fill="#219653" stroke="#263238" stroke-miterlimit="10" stroke-linecap="round" stroke-linejoin="round"/>
<path d="M61.9 353.3C61.9 353.3 45 351.6 45 367.2C45 367.2 61.9 367.9 61.9 353.3Z" fill="#219653" stroke="#263238" stroke-miterlimit="10" stroke-linecap="round" stroke-linejoin="round"/>
<path d="M46 413.2C46 413.2 53.7 397 46.3 380.6C38.9 364.1 36.4 350.3 40.3 340.5" stroke="#263238" stroke-miterlimit="10" stroke-linecap="round" stroke-linejoin="round"/>
<path d="M56.2999 357.5C56.2999 357.5 46.2 361.5 42.7 372" stroke="#263238" stroke-miterlimit="10" stroke-linecap="round" stroke-linejoin="round"/>
<path d="M24 354.6C24 354.6 29.9 362.6 39.8 361.7" stroke="#263238" stroke-miterlimit="10" stroke-linecap="round" stroke-linejoin="round"/>
<path d="M24 378.2C24 378.2 40.2 382.9 46.6 381.3" stroke="#263238" stroke-miterlimit="10" stroke-linecap="round" stroke-linejoin="round"/>
<path d="M63.8 383.6C63.8 383.6 56.6 391.6 49.3 391.4" stroke="#263238" stroke-miterlimit="10" stroke-linecap="round" stroke-linejoin="round"/>
<path d="M29.1453 404H66.0453V399.6H29.1453V404Z" fill="#263238" stroke="#263238" stroke-miterlimit="10" stroke-linecap="round" stroke-linejoin="round"/>
<path d="M334 371.5C334 371.5 321.6 378.8 312.8 393.5C304 408.2 297 428.9 307.9 431.5L318.2 431.1L338 424.3L335.9 420.3C335.9 420.3 318.5 429.5 315.6 429.5C312.7 429.5 308.8 430.2 307.1 429.1C305.5 427.9 312.8 401.2 328.5 392.3C344.3 383.2 334 371.5 334 371.5Z" fill="#219653"/>
<path opacity="0.5" d="M334 371.5C334 371.5 321.6 378.8 312.8 393.5C304 408.2 297 428.9 307.9 431.5L318.2 431.1L338 424.3L335.9 420.3C335.9 420.3 318.5 429.5 315.6 429.5C312.7 429.5 308.8 430.2 307.1 429.1C305.5 427.9 312.8 401.2 328.5 392.3C344.3 383.2 334 371.5 334 371.5Z" fill="black" fill-opacity="0.7"/>
<path d="M334 371.5C334 371.5 321.6 378.8 312.8 393.5C304 408.2 297 428.9 307.9 431.5L318.2 431.1L338 424.3L335.9 420.3C335.9 420.3 318.5 429.5 315.6 429.5C312.7 429.5 308.8 430.2 307.1 429.1C305.5 427.9 312.8 401.2 328.5 392.3C344.3 383.2 334 371.5 334 371.5Z" stroke="#263238" stroke-miterlimit="10" stroke-linecap="round" stroke-linejoin="round"/>
<path d="M345.3 361.8C345.3 361.8 345.3 357.5 351.8 356.9C358.3 356.3 359.3 362.6 359.3 362.6H357.1C357.1 362.6 357.2 358.8 352.4 358.5C347.6 358.2 347.8 362.6 347.8 362.6L345.3 361.8Z" fill="#219653" stroke="#263238" stroke-miterlimit="10" stroke-linecap="round" stroke-linejoin="round"/>
<path d="M335.7 431.4C321.9 431.4 324.5 369.5 326.1 366.4C327.7 363.3 367.8 361.8 371.7 363.1C375.6 364.4 391.5 426.1 382.8 431L335.7 431.4Z" fill="#219653"/>
<path opacity="0.2" d="M335.7 431.4C321.9 431.4 324.5 369.5 326.1 366.4C327.7 363.3 367.8 361.8 371.7 363.1C375.6 364.4 391.5 426.1 382.8 431L335.7 431.4Z" fill="black" fill-opacity="0.7"/>
<path d="M335.7 431.4C321.9 431.4 324.5 369.5 326.1 366.4C327.7 363.3 367.8 361.8 371.7 363.1C375.6 364.4 391.5 426.1 382.8 431L335.7 431.4Z" stroke="#263238" stroke-miterlimit="10" stroke-linecap="round" stroke-linejoin="round"/>
<path d="M326.1 366.4C331.1 367.5 334 387.7 340.7 392.9C347.4 398.1 379.2 396.9 382.8 392.9C386.4 388.9 379.4 366.1 374.3 362.6C369.2 359.1 365.6 362.5 351.2 360.9C329.8 358.6 326.1 366.4 326.1 366.4Z" fill="#219653" stroke="#263238" stroke-miterlimit="10" stroke-linecap="round" stroke-linejoin="round"/>
<path d="M362.5 378.1L368.4 382.9C368.7 383.2 368.8 383.7 368.5 384L363.9 388.9C363.6 389.2 363.1 389.2 362.8 388.9L357 383.4C356.7 383.1 356.7 382.6 357 382.3L361.5 378.1C361.7 377.8 362.2 377.8 362.5 378.1Z" fill="#219653"/>
<path opacity="0.2" d="M362.5 378.1L368.4 382.9C368.7 383.2 368.8 383.7 368.5 384L363.9 388.9C363.6 389.2 363.1 389.2 362.8 388.9L357 383.4C356.7 383.1 356.7 382.6 357 382.3L361.5 378.1C361.7 377.8 362.2 377.8 362.5 378.1Z" fill="black" fill-opacity="0.7"/>
<path d="M362.5 378.1L368.4 382.9C368.7 383.2 368.8 383.7 368.5 384L363.9 388.9C363.6 389.2 363.1 389.2 362.8 388.9L357 383.4C356.7 383.1 356.7 382.6 357 382.3L361.5 378.1C361.7 377.8 362.2 377.8 362.5 378.1Z" stroke="#263238" stroke-miterlimit="10" stroke-linecap="round" stroke-linejoin="round"/>
<path d="M343.1 403.3C343.1 403.3 369.7 405.5 382.7 402.1C382.7 402.1 385.2 403.9 386.4 407.4C387.6 411 390.1 423.1 382.7 426.3C375.3 429.4 348.7 428.8 345.2 425.3C341.6 421.7 343.1 403.3 343.1 403.3Z" fill="#219653"/>
<path opacity="0.4" d="M343.1 403.3C343.1 403.3 369.7 405.5 382.7 402.1C382.7 402.1 385.2 403.9 386.4 407.4C387.6 411 390.1 423.1 382.7 426.3C375.3 429.4 348.7 428.8 345.2 425.3C341.6 421.7 343.1 403.3 343.1 403.3Z" fill="black" fill-opacity="0.7"/>
<path d="M343.1 403.3C343.1 403.3 369.7 405.5 382.7 402.1C382.7 402.1 385.2 403.9 386.4 407.4C387.6 411 390.1 423.1 382.7 426.3C375.3 429.4 348.7 428.8 345.2 425.3C341.6 421.7 343.1 403.3 343.1 403.3Z" stroke="#263238" stroke-miterlimit="10" stroke-linecap="round" stroke-linejoin="round"/>
<path d="M343.1 403.3C343.1 403.3 346.2 411.7 347.9 413C349.5 414.3 384.1 414.3 387.9 411.2C391.7 408.1 386.5 402.4 382.8 402.1C382.7 402.1 358.5 404.9 343.1 403.3Z" fill="#219653" stroke="#263238" stroke-miterlimit="10" stroke-linecap="round" stroke-linejoin="round"/>
<path d="M331.9 401.5C331.9 401.5 332.8 419.2 334.6 423.2C334.6 423.2 330.5 425.6 326 423.2C321.5 420.8 322.2 405.6 323.1 405.6C324.1 405.6 331.9 401.5 331.9 401.5Z" fill="#219653"/>
<path opacity="0.4" d="M331.9 401.5C331.9 401.5 332.8 419.2 334.6 423.2C334.6 423.2 330.5 425.6 326 423.2C321.5 420.8 322.2 405.6 323.1 405.6C324.1 405.6 331.9 401.5 331.9 401.5Z" fill="black" fill-opacity="0.7"/>
<path d="M331.9 401.5C331.9 401.5 332.8 419.2 334.6 423.2C334.6 423.2 330.5 425.6 326 423.2C321.5 420.8 322.2 405.6 323.1 405.6C324.1 405.6 331.9 401.5 331.9 401.5Z" stroke="#263238" stroke-miterlimit="10" stroke-linecap="round" stroke-linejoin="round"/>
<path d="M331.9 401.5L325.2 402.8C325.2 402.8 318.8 407.7 321.6 409.3C324.5 411 331.8 407 331.9 401.5Z" fill="#219653" stroke="#263238" stroke-miterlimit="10" stroke-linecap="round" stroke-linejoin="round"/>
</g>
<defs>
<clipPath id="clip0_9_569">
<rect width="405.6" height="438.3" fill="white"/>
</clipPath>
</defs>
</svg>
